<svg xmlns="http://www.w3.org/2000/svg" viewBox="0 0 2000 500"><defs><style>.cls-1{isolation:isolate;}.cls-2{font-size:626.3px;font-family:SusannaRegular, Susanna;}.cls-3{font-size:651.06px;font-family:UniversalAccreditation, Universal Accreditation;}.cls-4,.cls-7{fill:#e60072;}.cls-5,.cls-8{fill:#ffc5c7;}.cls-6{fill:#9e005d;}.cls-7,.cls-8{mix-blend-mode:multiply;}</style></defs><title>Mesa de trabajo 1</title><g class="cls-1"><g id="Capa_1" data-name="Capa 1"><text class="cls-2" transform="translate(1313.8 489.19) scale(0.34 1)">SHOES</text><text class="cls-3" transform="translate(4.17 486.41) scale(1.13 1)">LILI’S</text><path class="cls-4" d="M1241.91,106.39l10.81-11.11c-2.67,9.37-4.66,24.11-2.72,31.16l5.54,20.16-3.35.87C1246.87,123.65,1243.6,111.84,1241.91,106.39Z"/><path class="cls-4" d="M1193.27,139.53a17.69,17.69,0,0,1,2.75-.45,42.08,42.08,0,0,1-1.16-7.47s.64-1,6.31-4,6.6-24.12,7.84-30.64.78-16,.78-16a7.69,7.69,0,0,1,2.84-1.73c2.66-.69,3.12,2.93,2.92,6.69l.72-.34.72-.33c4.73-2.06,11.85-3.84,16.12-4.82l.69-.15.71-.16c-1.55-2.91-2.84-4.86-2.84-4.86a8.81,8.81,0,0,1-5.07,3c-6.34,1.66-15.25-.2-15.25-.2-1.28-1.81.2-2.19.2-2.19a29.48,29.48,0,0,0,4.18-.75c2.7-.7,4.65-1.75,8-3.33,3.65-1.71,7.63-5.84,9.88-6.42a1.18,1.18,0,0,1,1.61.84c1.13,3.31,10.71,12.85,15.4,18s3,8,3,8l-12.2,12.54-2.58,2.66c-16,22.84-.31,40.5-9.72,45.43a24.08,24.08,0,0,1-5,1.83c-10.36,2.7-25.63,1.5-26.5-.28-1-2.1-5.29-9.87-6.78-12.41C1190.1,140.72,1191.66,140,1193.27,139.53Zm43.35-55.06-.72.12-.68.14c-4.81,1.06-14.07,4.46-18.79,6.24l-.77.29-.76.29c-.2,1.19-.37,2-.37,2a9.87,9.87,0,0,0,2.35,7.45l.5-.48.5-.48c4.37-4.21,12.12-11.26,17.79-14.23l.62-.32.63-.29Zm3.2,13.93a20.24,20.24,0,0,0-.91-7.76l-.14.08-.48.28-.61.35c-3.12,1.84-12.13,7.29-16.35,11.49-.17.17-.33.33-.48.5s-.33.35-.48.53c5.49,3.34,12.82,3.91,12.82,3.91Zm-27.08,23.94c1.18,1,12.29,5.8,12.83,5.36s1.84-5,1.84-5C1214.49,119.48,1211.55,121.3,1212.74,122.34Z"/><path class="cls-4" d="M1121.34,265.88c9.25,4.72,12.85,1.89,12.85,1.89,7-6,10.82-20.34,9.48-22.52-1-1.66-4.64-4.56-6.31-5.84-.23,5.94-2.87,12.1-7.91,18.34A55.1,55.1,0,0,1,1121.34,265.88Z"/><path class="cls-4" d="M1119.36,285.15s-14.18-10.57-20-16c-.1.15-.2.29-.29.44-.23.34-.46.69-.73,1a5.23,5.23,0,0,1-4,1.89,24.32,24.32,0,0,0,3.2,1c4.16,1,19.23,13.79,19.23,13.79S1118.56,287.51,1119.36,285.15Z"/><path class="cls-4" d="M1132.26,241.52c-4.38,4.73-8,5-8,5v0a.58.58,0,0,0-.17.06l-.27.15-.44.26c-2.42,1.46-4.4,3.44-6.8,4.94-3.75,2.34-8.62,1.31-12.77.85a31.51,31.51,0,0,0-10.39.71c-.48.1-1,.22-1.44.34l-1.36.37c-5.58-.34-8.74-.18-9.94.34a.66.66,0,0,0-.28.22c-1.7,2.1.54,15.8,11.57,16.8l.19,0c3.34.27,4.58-.46,5.44-1.52.38-.48.69-1,1.07-1.56.12-.17.25-.34.39-.52,1.8-2.22,5.6-4.33,21.28-2.54a53.2,53.2,0,0,0,8.34-8.29c3.89-4.81,7.68-11.3,7.75-18.41C1136.46,238.77,1136.65,236.79,1132.26,241.52Zm-9.48,11.54c-1.86,2.3-5.72,4.08-13.6,3.07-6.48-.82-11.72-1.38-15.88-1.71.27-.07.53-.15.8-.21l.69-.13c.62-.12,1.25-.21,1.87-.28a52.66,52.66,0,0,1,11.06.37c3,.3,6.29.33,9-1.2,2.44-1.39,4.42-3.37,6.76-4.89l.46-.29.46-.27A8,8,0,0,1,1122.78,253.06Z"/><path class="cls-5" d="M939,391c-1,9.17-3.87,10.12-3.87,10.12-5.83,1.62-14.87-3.75-15.51-5.92a43.54,43.54,0,0,1-.7-7.72c3.23,3.17,7.49,4.75,12.7,4.69A26.23,26.23,0,0,0,939,391Z"/><path class="cls-5" d="M950,400.36s-.22-15.91-.88-23l.34,0a5.46,5.46,0,0,0,.82.06,3,3,0,0,0,2.53-1.79,28.84,28.84,0,0,1-.67,2.82c-1,3.51,0,21.28,0,21.28A1.47,1.47,0,0,1,950,400.36Z"/><path class="cls-5" d="M922,385c4.17-.44,5.67-2.83,5.67-2.83l0,0a.24.24,0,0,1,.09-.08L928,382l.3-.16c1.7-.89,3.49-1.18,5.19-2,2.67-1.34,4-5.35,5.3-8.53a25.6,25.6,0,0,1,4.31-6.93l.72-.82.72-.75c1.93-4.13,3.21-6.27,3.94-6.83a.37.37,0,0,1,.23-.07c1.75,0,8.15,9.22,4.5,17.56l-.07.14c-1.12,2.51-2,3-2.86,3a11.1,11.1,0,0,1-1.23-.12h-.42c-1.86,0-4.41,1.52-9.41,13.58a25.42,25.42,0,0,1-7.55,1.24,16.82,16.82,0,0,1-12.68-4.84S917.82,385.49,922,385Zm9.7-.23c1.92,0,4.33-1.75,6.78-7.87,2-5,3.71-9,5.11-12.15-.13.15-.28.29-.41.44s-.22.28-.33.42c-.3.37-.59.76-.86,1.16a47.11,47.11,0,0,0-4,8c-1,2.3-2.22,4.62-4,5.67-1.66.95-3.46,1.23-5.15,2l-.33.17-.32.17A4.92,4.92,0,0,0,931.69,384.81Z"/><path class="cls-5" d="M1096.48,139.05c-22.11,20.87-33,35-35.19,46,3.72,3,5.54,6.2,6.17,9.51l3.5-6.42c9.55-17.43,20.23-34.88,45.72-56.82,20.66-17.77,27.53-28.18,29.82-33.27C1134.84,106.78,1112.6,123.82,1096.48,139.05Z"/><path class="cls-5" d="M1101.87,77.82c-3.58,6.88-3.51,8.26-3.47,9.09,0,1,0,1.87-1.14,4-2.3,4.19-9.94,15-31.44,44.3a270.92,270.92,0,0,0-19,29.44c-22.46,41-15.32,60.84-14,63.82,5.87,2.68,13.18-1.52,21.18-11.92a30.71,30.71,0,0,1,2.76-9.51,40.2,40.2,0,0,0,2.42-6.62,32.88,32.88,0,0,1-1.32-7.46,12.83,12.83,0,0,0-3-2.61,4,4,0,0,1-1.36-5.41,4,4,0,0,1,2.51-2,3.81,3.81,0,0,1,2.55.36,39.27,39.27,0,0,1,3.74-9.31c5.4-9.84,15.74-21.76,32-37.11,17.29-16.33,41.53-34.7,52.47-42.79C1123,75.57,1105.38,77.24,1101.87,77.82Z"/><path class="cls-5" d="M1058.09,185.4l-.22-.15a1.63,1.63,0,0,0-2.43.64,2,2,0,0,0,.63,2.65,19.75,19.75,0,0,1,1.68,1.22,11.13,11.13,0,0,1,3.32,4.09,9.12,9.12,0,0,1,.72,4.31,18.66,18.66,0,0,1-1.24,5.35c-.51,1.4-1.12,2.84-1.78,4.32a39.24,39.24,0,0,0-1.69,4.42,22.44,22.44,0,0,0-.87,3.87,16.14,16.14,0,0,0-.1,2.69,14.75,14.75,0,0,0,1.3,5.62c1.42,3.13,4.3,2.72,5.63.29a5.15,5.15,0,0,0,.43-1c1.41-4.69,1.83-11-.06-15.62,0-.11-.08-.23-.13-.35a2.75,2.75,0,0,0-.19-.28c.49-1.17.93-2.31,1.28-3.42l.12-.37c.1-.33.21-.67.3-1a20.66,20.66,0,0,0,.78-4.56,12.71,12.71,0,0,0-4.63-10.5A24.39,24.39,0,0,0,1058.09,185.4ZM1060.2,221a11.45,11.45,0,0,1-.26-4.77,17.37,17.37,0,0,1,.76-3A27,27,0,0,1,1060.2,221Z"/><path class="cls-4" d="M1249.81,248.12c-5.45,14.74-7.24,23.79-5.73,29.4a8.14,8.14,0,0,1,5,3l.14-3.78c.43-10.26,1.37-20.8,8.14-36.81,5.49-13,6.28-19.37,6.18-22.25C1260.17,224.37,1253.78,237.37,1249.81,248.12Z"/><path class="cls-4" d="M1238.25,218.53c-.08,4,.27,4.62.48,5a3.25,3.25,0,0,1,.38,2.09c-.1,2.47-1.17,9.21-4.39,27.74a139.41,139.41,0,0,0-2,18c-1,24.14,6.86,31.7,8.16,32.77,3.33-.1,5.76-3.72,7.07-10.38a16,16,0,0,1-.91-5,21.31,21.31,0,0,0-.39-3.62,16.36,16.36,0,0,1-2.32-3.15,6.77,6.77,0,0,0-2-.52,2.07,2.07,0,0,1-1.87-2.19,2,2,0,0,1,.71-1.49,1.91,1.91,0,0,1,1.26-.41,20.34,20.34,0,0,1-.4-5.18c.24-5.79,2.29-13.69,6.3-24.52,4.26-11.53,11.27-25.61,14.48-31.86C1247.52,212.63,1239.75,217.45,1238.25,218.53Z"/><path class="cls-4" d="M1242.67,278.4l-.14,0a.84.84,0,0,0-1,.86,1,1,0,0,0,.89,1.08c.38.05.73.11,1.06.18a5.89,5.89,0,0,1,2.48,1.13,4.66,4.66,0,0,1,1.32,1.84,9.89,9.89,0,0,1,.66,2.76c.08.76.13,1.57.16,2.41a23.82,23.82,0,0,0,.23,2.43,11.92,11.92,0,0,0,.49,2,8.39,8.39,0,0,0,.57,1.26,7.73,7.73,0,0,0,1.89,2.31,1.52,1.52,0,0,0,2.67-1.16,2.89,2.89,0,0,0,0-.58,13.08,13.08,0,0,0-3.62-7.22l-.13-.13a.89.89,0,0,0-.16-.09c0-.66-.1-1.28-.19-1.88l0-.19-.09-.54a11,11,0,0,0-.69-2.29,6.55,6.55,0,0,0-4.55-3.8A11.53,11.53,0,0,0,1242.67,278.4Zm9.14,16a6,6,0,0,1-1.22-2.15,8.9,8.9,0,0,1-.33-1.55A14.19,14.19,0,0,1,1251.81,294.38Z"/><path class="cls-4" d="M813.76,413.28a36.94,36.94,0,0,0,8.37,1.22c2.19,3.7,1.51,4.47,1.51,4.47.52,2.12-1.87,3.67-.15,4s2.85,2.57,5.2-2.59c.65-1.41,2.53-2.87,4.91-4.23a47.34,47.34,0,0,0,.68-6c0-.21,0-.41,0-.63l0-.65c0-1,.08-2.14.1-3.37v0c0-.2,0-.42,0-.64v-.63c-8.67.13-17.64,1.31-18.72,2.38s-3.49,4.91-3,6.13A.87.87,0,0,0,813.76,413.28Zm7.53-.11a42.34,42.34,0,0,1-5-.59c1.17-.32,2.5-.65,4-1C820.62,412.17,821,412.69,821.29,413.17Z"/><path class="cls-4" d="M885.86,408.75l0-.53-4.21-.45v.71c0,.19-.16,18.92-.05,24.62,0,1,.12,1.95.22,2.9.23,2.19.45,4.26-.47,5.21q-1.65,1.71-9-1c-6.65-2.46-9.41-10.6-12.08-18.47-.35-1-.71-2.08-1.07-3.1l-.65.13-.64.12c-.91.18-2,.42-3.34.71l-.66.14-.67.16a18.55,18.55,0,0,1,.92,1.9c6.43,15.89,14.14,21.24,17.17,22.81,3,7.27,5.92,17.44,5.92,17.44l-3.11,4c-.44-.21-.91-.41-1.39-.62,3.35-7.24-.3-14.18-4.94-20.34-3-3.93-6.36-7.55-9.1-11.65-2.87-4.3-4.58-9-7.93-13-.16-.18-.33-.35-.5-.53l-.49-.54c1-.24,1.88-.47,2.76-.67l.67-.16.69-.15c1.37-.31,2.58-.56,3.55-.76l.65-.13.65-.12,1.18-.22c-3.51-8.19-4.36-8.5-7.2-11-1.71-1.5-7.45-2-11.78-2.15-2.89-.1-5.16-.05-5.16-.05v.9c0,.22,0,.43,0,.64a1.85,1.85,0,0,0,0,.23c0,1.18,0,2.26-.1,3.24l0,.64c0,.22,0,.43,0,.64-.13,2.16-.31,3.83-.52,5.12-.6,3.82-1.38,4.29-1.38,4.29-1.4,3-6,2.58-4.25,4.58,1,1.11.5,2.22,1.28,2.25.6,0,2-.62,5.48-2.43a63.35,63.35,0,0,1,12.19-4.32.72.72,0,0,0,.15.22l.3.32c.17.18.33.36.5.53,3.25,3.55,5.07,7.8,7.42,12a66,66,0,0,0,6.85,9.14c5.36,6.52,11.86,14.54,7.88,23-10.79-4.09-28.82-6-29.16-4.77a3.41,3.41,0,0,0-.08,2.07,104.73,104.73,0,0,1,33.9,8.64c1-3.49,6.85-7.59,6.49-8.88s-.5.38-.76-8.09a8.31,8.31,0,0,0-.18-1.5l.76.6a10.67,10.67,0,0,1,.15,1.29,44.85,44.85,0,0,0,.72,6.26c.37,2.13.43,2.46-.72,3.46-2.21,1.92-5.64,5.86-6.91,8.75-3.32-1.64-18.46-8.72-33.49-9.33l-.66,0-.16,4.29.54.11c12.17,2.47,30.89,7.14,32.6,9.9a2,2,0,0,0,1.68,1c4.31.15,13.08-12.78,14.64-19,1-3.9,1.07-5.88.37-7.24-.11-.59-.27-1.24-.47-2a69.35,69.35,0,0,1-1.56-7.82C887.73,432.3,885.88,409,885.86,408.75Z"/><path class="cls-4" d="M914.05,481.57l-1.77-33.74a35.7,35.7,0,0,0-3.95-1.53c-4.37-1.4-7.53-2.89-9.64-4.55L904.08,481S909.61,482.58,914.05,481.57Z"/><path class="cls-4" d="M908.73,445.11c1.23.39,2.38.82,3.48,1.28C927.82,453,931,466.46,934.4,473.88c3.53,7.62,10.15,7.46,17.4,7.1l.94-.05c7.61-.38,19.08-6.78,19.08-6.78s0-10.25-.1-15.91-10.82-5.29-14-8c-.87-.72-2-1.85-3.34-3.19a6.64,6.64,0,0,0,1.16.44.55.55,0,0,0,.18,0,.69.69,0,0,0,.61-.28.8.8,0,0,0-.44-1.28,4.49,4.49,0,0,1-1.48-.7,6.37,6.37,0,0,1-1.57-1.69c-2-3-2.56-7.83-3.48-10.54-.49-1.42-1-2.81-1.61-4.16,2.22-1.29,2.47-4.64,1.08-6.51s-3.7-2.82-6-3.47l-.63-.16c-.22-.06-.44-.12-.65-.16,0-.61,0-1.14.07-1.6l.66-.3.66-.32c3.53-1.76,7-4.4,7.06-8.31a.8.8,0,0,0-.64-.74c-4.09-.44-7.08,2.2-9.21,5.3l-.35.52c-.12.18-.24.36-.35.54-2.63-1.75-7.25-4.21-12.2-4-7.61.37-22.56-.83-22.56-.83-.12,4.78-3.37,15.55-4.79,19.68-1,2.92-5.45,7-1.45,11.21C900.1,441.55,903.23,443.35,908.73,445.11Zm40.72-6c.09.36.19.73.3,1.1s.29,1,.46,1.48a14.22,14.22,0,0,0,.75,1.8c-2.72-3-5.46-6.23-7.16-8.41-1.33-1.72-1.94-5.26-2.18-8.87.23.32.47.63.71.93s.48.55.73.8a4.1,4.1,0,0,0,3.13,1.48A62.71,62.71,0,0,1,949.45,439.09Zm-6.68-18.49a13.24,13.24,0,0,1,3.94,2,2.87,2.87,0,0,1,1.15,3.47,3.82,3.82,0,0,1-.85,1.35,30.49,30.49,0,0,0-4.25-6.49l-.35-.42Zm-.64,2c.22.28.45.56.66.85a30.41,30.41,0,0,1,2.47,4,7.24,7.24,0,0,1-2.41-2.2c-.23-.32-.46-.64-.68-1s-.46-.69-.68-1.05c0-.48,0-.95,0-1.4Zm-1-8.57c.11-.18.23-.35.35-.53,1.63-2.42,3.87-4.67,6.83-4.7-.45,2.57-2.89,4.46-5.46,5.81l-.61.31q-.32.17-.63.3l-.81-.64C940.85,414.44,941,414.25,941.08,414.07Z"/><path class="cls-4" d="M1037.9,263.05c3-5.16,2.84-7.06,7.38-7.87s23.69,1,23.69,1c6.08-2.34,10.69-15,11.6-17.65a.44.44,0,0,0,.16-.47v0h0l0-.06c-1.23-2.43-6-.84-8.5-.73a3.92,3.92,0,0,1-1-.61c-2.31-1.94-5-4.42-7.84-6s-5.07.94-10.84,1.84-17.08-.7-17.08-.7l-.11,1.52s1.43,0,14.21.94-4.35,6.88-10.46,8.18-6.79,3.81-6.74,7.48.68,7.8.89,12.16S1034.89,268.21,1037.9,263.05Zm37.61-25.12c1-.15,3-.62,3.85.13A33.6,33.6,0,0,1,1075.51,237.93Z"/><path class="cls-6" d="M1233.49,471.55c-5.52-2.53-7.45-2.22-8.64-6.57s-3.32-22.85-3.32-22.85c-1.55-3.1,6.69-60,7.36-82-15.75-11.95-32.92-11.28-34.21-11.6-.13-.12,10,83.31,9.83,83.37h0v0l-.07,0c-2.39,1.37-.38,5.83-.08,8.31a3.91,3.91,0,0,1-.54,1.06c-1.81,2.39-4.13,5.18-5.5,8.06s1.37,4.85,2.74,10.38.62,16.64.62,16.64l1.57,0s-.1-1.38-.15-13.86,7.38,3.71,9.19,9.54,4.44,6.3,8.19,6,7.94-1.25,12.39-1.78S1239,474.08,1233.49,471.55Z"/><path class="cls-4" d="M972.17,401.66c-1.77-3-2.8-3.51-1.86-6s6.36-12,6.36-12c.33-2,24.07-26.52,32.06-36.87-3.4-10.88-11.87-16.19-12.38-16.77,0-.1-24.17,43.17-24.28,43.14l0,0h0c-1.63-.12-2.22,2.67-2.93,3.95a2.44,2.44,0,0,1-.63.34,30.25,30.25,0,0,0-5.44,2.05c-1.66.93-1,2.77-2.3,5.87s-5.49,8.17-5.49,8.17l.76.51s.43-.7,4.75-6.69,2.25,4.19,1.09,7.58-.06,4.48,1.86,5.55,4.24,2,6.56,3.22S973.94,404.68,972.17,401.66Z"/><path class="cls-4" d="M979.32,433.46c-.62.09-1.23.19-1.84.3-6.6,1.19-10.78,1.84-13.69,1.74,8.13,5.72,25.35,17.48,41.66,26.19,0,0,2.68-1,2.93-2.33C1008.58,458.31,974.64,440,979.32,433.46Z"/><path class="cls-4" d="M1018.92,435.4a4.35,4.35,0,0,0,2,.91c3.28.54,14-4.84,17.86-9.93s9.85-15.51,9.49-21c-.23-3.4-1-6.32-2.4-6l0,.55a44.7,44.7,0,0,1-8.73,23.28A35.14,35.14,0,0,1,1018.92,435.4Z"/><path class="cls-4" d="M1033.86,398.75q-.18.24-.36.51c-.31.48-.63.93-1,1.34-2.9,3.74-5.92,4.56-7,4.73,0,0-.08,0-.12,0l-.94.13-.67.09c-8.29,1.37-15,6.28-23.82,6.2a63.07,63.07,0,0,0-11.82.72c-.81.15-1.61.32-2.41.53-.63.18-1.27.38-1.89.6-13.23-.43-29.76.4-29.76.4a2.28,2.28,0,0,0-1.17.83c-.9,1.15-1.47,3.85,2,10,1.9,3.37,2.83,5.73,4,7.25h0a5,5,0,0,0,2.41,1.73c2.52.85,6.77.27,15.81-1.35,1.82-.33,3.65-.57,5.47-.75,1.19-.12,2.37-.21,3.55-.28,1.89-.1,3.76-.14,5.6-.13a117.46,117.46,0,0,1,25.72,3.13l.27-.08a33.86,33.86,0,0,0,18.15-12,43.59,43.59,0,0,0,8.38-21.7c.05-.52.07-.83.07-.83S1037.76,393.73,1033.86,398.75Zm-10.45,15c-5,6.38-18.51,2.91-26.81,1.07-.73-.17-1.56-.31-2.47-.44,1.08,0,2.17,0,3.28-.06l2.86,0q1.61,0,3.24-.12c7.36-.43,13.36-4.8,20.4-6.14l.69-.13.68-.09A10,10,0,0,1,1023.41,413.71Z"/><path class="cls-4" d="M1057.17,332.47,1038.66,344a1.41,1.41,0,0,0-.45,2l2.89,4.41c8.57-4.79,17-9,23.21-9.65l-5.11-7.79A1.49,1.49,0,0,0,1057.17,332.47Z"/><path class="cls-4" d="M1065.36,342.3c-6.1.17-15.39,5-23.33,9.46l-1.76,1c-11.34,6.4-21.07,2.22-35.38,11.1s-26,28.71-26,28.71c2.21,3.38,7,3.76,13.29-.15l.58-.37c.81-.52,1.58-1,2.34-1.49,5.45-3.38,10-5.33,17.15-5.49,7.38-.17,15.77,4.74,18.38,3.12a1.58,1.58,0,0,0,.64-.79c1.18-3-.64-7.47-1.25-8.8l0,0-3-3.8,1-.43c1.61-.65,34.88-14.11,50.85-12.2,0-4.86-4.18-11.78-8-17.57C1069.69,342.89,1067.77,342.23,1065.36,342.3Z"/><path class="cls-4" d="M1078.59,363.8c-13.74-1.73-43,9.4-48.93,11.72l1.56,1.94c10.51-4.83,39.64-8.39,46.16-12.44A2.84,2.84,0,0,0,1078.59,363.8Z"/><path class="cls-5" d="M1012.29,278.3l4.19-12.08a.84.84,0,0,0-.55-1.08l-3-1c-2.14,5.34-4.44,10.39-7.09,12.93l5.37,1.77A.89.89,0,0,0,1012.29,278.3Z"/><path class="cls-5" d="M1004.7,276.71c2.77-2.3,5.23-7.94,7.22-12.89.14-.37.29-.74.44-1.1,2.81-7.11,8.94-8.71,12.19-18.05s1.07-22.83,1.07-22.83c-2.33-.76-4.7.8-6.12,4.91,0,.13-.09.26-.13.39-.18.53-.35,1.05-.52,1.54a17.42,17.42,0,0,1-5.86,8.8c-3.37,2.76-9.16,3.54-9.75,5.24a.88.88,0,0,0,0,.6c.6,1.82,3.17,3.24,4,3.64v0l2.88.65-.32.58c-.5.89-10.8,19.26-19,24.19,1.88,2.25,6.47,4,10.46,5.27A3.5,3.5,0,0,0,1004.7,276.71Z"/><path class="cls-5" d="M990.28,271.53c7.06-4.2,16.4-20,18.26-23.27l-1.48-.34c-3,6.08-15.2,18.34-16.68,22.6A1.63,1.63,0,0,0,990.28,271.53Z"/><path class="cls-4" d="M1201.21,338.3l1.8-18.94a1.19,1.19,0,0,1,1.17-1.18l3.81.34c-.48,8.55-.64,16.78.89,21.76l-6.74-.61A1.18,1.18,0,0,1,1201.21,338.3Z"/><path class="cls-4" d="M1210.27,340.4c-1.8-4.71-1.5-13.84-1-21.77,0-.59.07-1.18.1-1.75.68-11.34-5.12-17-3.73-31.65s10.83-31.94,10.83-31.94c2.92.27,4.67,3.75,4.06,10.2,0,.2,0,.4-.07.6-.09.83-.18,1.64-.25,2.41-.53,5.58-.41,9.84,1.73,15.38,2.2,5.7,8.07,10,7.81,12.7a1.53,1.53,0,0,1-.32.82c-1.6,2.16-5.13,2.66-6.2,2.76v-.05l-3.46-.73,0,1c.07,1.5,1.59,32.53,7.84,43.89-3.22,2-9.09,1.78-14.1,1.33C1212,343.45,1211,342.27,1210.27,340.4Z"/><path class="cls-4" d="M1228.61,341.43c-5.44-9.75-7.24-36.75-7.56-42.24l1.78.37c.08,10.05,6.84,33.76,6.21,40.43A2.82,2.82,0,0,1,1228.61,341.43Z"/><path class="cls-4" d="M1128.58,154.45a36,36,0,0,0,15.31-12.75c3.36-5.19,4.28-11.06,4.65-16.52.48-7,.15-13.88.5-20.86.41-8.26,1.2-16.57,2-24.89,5.16-1.06,22.47-3.45,24.27,12.26,2.13,18.48,19.42,28.21,18.79,29.91s-3.58,3.14-3.58,3.14C1175.46,103,1171.9,103,1171.9,103c-20.83,9.07,0,36.85-18.74,53.25a126.73,126.73,0,0,1-38.93,23.1C1109.55,174.92,1127,161.57,1128.58,154.45Z"/><path class="cls-4" d="M1143.48,139.33c-3.19,5.9-8.46,10.29-14.53,13.29,2.17-6,16-8.77,15.3-32.14-.63-21.58,3.86-36.37,5.06-39.89-1.21,13.66-2,27.17-2.31,40.74C1146.87,127.14,1146.6,133.56,1143.48,139.33Z"/><path class="cls-5" d="M945.33,335.46a31.12,31.12,0,0,0,15.88-5.94c4.19-3.21,6.62-7.63,8.5-11.87,2.4-5.44,4.14-11,6.44-16.47,2.73-6.47,5.77-12.87,8.82-19.26,4.42.56,18.88,3.42,15.76,16.42-3.66,15.3,7.28,27.79,6.28,29s-3.75,1.52-3.75,1.52c-5.69-21.46-8.52-22.41-8.52-22.41-19.23,1.5-10.7,29.34-30.37,37.24a109,109,0,0,1-37.7,7.7C924.24,346.52,942,340.68,945.33,335.46Z"/><path class="cls-5" d="M961.57,327.52a28,28,0,0,1-15.42,6.59c3.47-4.19,15.27-2.59,21.5-21.38,5.76-17.36,13.63-27.9,15.6-30.37-4.92,10.55-9.47,21.08-13.65,31.8C967.81,318.75,965.73,323.79,961.57,327.52Z"/><path class="cls-4" d="M1221.88,48.48a12.91,12.91,0,0,1-2.54-.67c-.27-.1-.53-.18-.8-.29s-.52-.24-.78-.37c-5.17,6.43-13.62,17.41-15.29,22.47-1-.58-2.42-1.4-4.24-2.31,3-3.32,12.49-14.05,16-22.13l-.67-.46-.7-.48c-1.3-.93-2.59-1.94-3.85-3l-.65-.53-.64-.54c-4,7.26-12.1,21.76-15.64,24.48-1-.38-2.13-.74-3.25-1.07,4-6.05,10.46-21.65,13.15-28.26l-.67-.54-.68-.53a10.71,10.71,0,0,0-3.88-2.19l-.41-.08-.82-.15-.79-.18c-3.48,7.69-9.91,24.93-12,30.58a33.5,33.5,0,0,0-4.15-.33c-.28,0-.55,0-.83,0s-.56,0-.84,0c.49-4.21,1.82-16.84,1-24.31,0-.33-.08-.63-.13-1s-.08-.63-.14-.92-.16-.83-.25-1.2c0-.08-.07-.17-.12-.19a.43.43,0,0,0-.34.14L1174.13,37a2.68,2.68,0,0,0-.8,2l0,.31c0,.3.05.62.08,1s.06.63.09,1c.44,5.33,1,14.4.14,21.08l-.85.16-.86.2a22.06,22.06,0,0,0-2.2.65l-1,.37-.81.3-.82.29a115.67,115.67,0,0,0-1.89-16.4L1165,47c-.07-.29-.13-.58-.2-.88-.17-.7-.34-1.39-.53-2.06,0-.15-.1-.2-.11-.2s-.15,0-.33.16l-1.59,1.35a2.44,2.44,0,0,0-.73,2c.08.39.15.8.24,1.22s.11.61.17.91.12.6.17.91a142.15,142.15,0,0,1,2.28,14.88l-.82.29-.82.28-2.09.73-.8.27-.8.27c-.24-1.85-1.12-6.87-3.81-10.69-.15-.22-.32-.44-.49-.65s-.34-.43-.52-.63-.35-.39-.54-.57a1.37,1.37,0,0,0-1.6.25l-1.5,1.29a1.14,1.14,0,0,0-.36,1.47l.61.83.48.68.46.68a23.16,23.16,0,0,1,3.8,8.49l-.83.26-.8.25c-1.65.51-3.18.94-4.52,1.27l-.91.21-.93.19-3.28-3.62-.54-.61-.55-.6-1.08-1.2a.85.85,0,0,0-1.17-.07l-2.72,2.33a1.27,1.27,0,0,0-.31,1.47,13.86,13.86,0,0,0,.91,1.32l.52.63c.18.19.37.39.57.58a7,7,0,0,0,3.54,2c.15,0,.3,0,.45,0a1.4,1.4,0,0,0,.48.26,7.18,7.18,0,0,0,2.62,0,23.6,23.6,0,0,0,2.42-.44A150.85,150.85,0,0,0,1163.94,68l2.91-1,3.77-1.35a19.71,19.71,0,0,1,3.61-.92c.69-.11,1.38-.19,2.08-.24,12.47-.85,25.88,7.91,26,8a1.28,1.28,0,0,0,1.73-.32,1.1,1.1,0,0,0,.19-.5c.13-.1.27-.21.42-.35,3.39-2.9,14.93-14.38,19-22.67-.3,0-.6,0-.9,0S1222.18,48.53,1221.88,48.48Z"/><path class="cls-4" d="M1190.16,11.75a15.31,15.31,0,0,0-1.86,1.49c-1.17,1-2.78,2.42-4.44,3.88s-3.54,3.12-4.92,4.3c-1,.9-1.75,1.47-2.08,1.71a1.88,1.88,0,0,0-.91,1.79c0,.73,0,2.09-4.2,5.66-1,.9-2.32,1.9-3.77,3-2.46,1.82-4.51,3.41-6.17,4.78A125,125,0,0,0,1172.57,31c1.34-1,2.7-2,4-3.08,7.35-5.68,14.31-11.5,16.19-13.08l.51-.43.12-.1.12-.1.29-.1c.16-.06.31-.07.47-.12C1191.36,11.08,1190.51,11.55,1190.16,11.75Z"/><path class="cls-4" d="M1214.38,34.63c-4.72-5.47-11.35-20.08-18.73-19.31a5.81,5.81,0,0,0-1,.19c-.1,0-.2,0-.3.06s-.15.14-.43.37c-1.58,1.33-7.5,6.29-14.16,11.51-7.44,5.83-15.78,12-20,13.75h0a18.91,18.91,0,0,0-2.16,1.12,91.68,91.68,0,0,0-12.08,9c-10.08,8.63-20.81,20-20.19,23.58.78,4.61,4.23,2.48,11.07-3.38l1.23-1.06a14.88,14.88,0,0,1-1.1-1.56,2.85,2.85,0,0,1,.64-3.51l2.72-2.33a2.54,2.54,0,0,1,3.5.21l1.06,1.17c2.09-1.91,3.73-3.49,5.21-4.94-.28-.39-.54-.75-.76-1a2.7,2.7,0,0,1,.6-3.63l1.51-1.29a3,3,0,0,1,3.87-.18c.19.19.37.4.55.6,1-.9,2-1.85,3.27-2.9l1.61-1.36c-.13-.69-.26-1.39-.4-2.12a4,4,0,0,1,1.27-3.49l1.58-1.35a2,2,0,0,1,1.9-.5,1.83,1.83,0,0,1,1.23,1.32c.12.44.24.9.35,1.35l5.55-4.44c0-.53-.09-1-.13-1.38a4.26,4.26,0,0,1,1.36-3.35l2.87-2.46a2.05,2.05,0,0,1,1.92-.48,1.79,1.79,0,0,1,1.23,1.32c0,.13.07.3.1.45l9.84-7.94s1.38,2.35,6.46,3.51l.8.17.8.15h0a11.11,11.11,0,0,1,4.21,2.22l.68.52.68.52c1.81,1.45,3.81,3.21,5.89,5l.64.54.65.54c1.2,1,2.42,2,3.65,2.86l.71.5.69.47a25.22,25.22,0,0,0,3.91,2.23c.26.12.53.23.8.33l.81.28a10,10,0,0,0,2.21.46,6.62,6.62,0,0,0,.89,0,8.85,8.85,0,0,0,.9-.08,6.34,6.34,0,0,0,3-1.3s.79-1.78-2.27-2.51A36.11,36.11,0,0,1,1214.38,34.63Z"/><path class="cls-4" d="M1021,342.76a1.5,1.5,0,0,0,.62-.13c1.45-.65,2.74-3.83,3.85-9.47a26.85,26.85,0,0,0,5.57.95c.92,0,1.74-.95,1-1.77a24.42,24.42,0,0,0-5.73-4.53l.12-.89.17-1.22a39.55,39.55,0,0,1,5.07,5.2c.88,1.14,2.68-.21,1.8-1.35a49.29,49.29,0,0,0-6.51-6.49c.06-.39.12-.78.17-1.14,2,2.17,4.15,4.31,6,6.66.9,1.13,2.7-.22,1.81-1.35-2.25-2.84-4.9-5.37-7.36-8.05a26.47,26.47,0,0,1,.78-3.18c.77,1.19,1.54,2.38,2.3,3.59,0,0,0,.07,0,.1,1,1.6,2,3.9,3.24,5.73.12.25.26.5.38.75a1.09,1.09,0,0,0,.7.61,5.11,5.11,0,0,0,1.93,1.3c1.46.52,1.78-1,1.74-2.42a4.3,4.3,0,0,0,.87.67c1.39.78,2-.82,2.18-2.22a4.84,4.84,0,0,0,1.31,1.49c1.17.8,1.88-.34,2.26-1.57a4.74,4.74,0,0,0,1.27,1.56c1.7,1.27,2.55-1.86,2.7-3.13a.45.45,0,0,1,0-.12,6,6,0,0,0,1.9,3c1.7,1.27,2.56-1.86,2.71-3.13v-.11a6,6,0,0,0,1.91,3c1.66,1.24,2.51-1.7,2.69-3a5.25,5.25,0,0,0,1.86,2.42c1.86,1.22,2.84-1.84,3-3.08a2.66,2.66,0,0,1,0-.28,7,7,0,0,0,2.51,3c2,1.15,3.12-1.79,3.32-3,0-.27.06-.55.09-.83a7,7,0,0,0,2.52,3c1.54.88,2.54-.62,3-1.91a4.78,4.78,0,0,0,1.71,1.66c1.35.76,2.28-.3,2.8-1.44a4.67,4.67,0,0,0,1.4,1.36c1.59,1,2.77-.49,3.36-1.72a4.08,4.08,0,0,0,1,1.09c1.69,1.29,3.06-1.26,3.39-2.33,0-.17.08-.35.13-.53a4.84,4.84,0,0,0,1.75,2.63c1.51,1.1,2.77-.52,3.35-1.7a4.42,4.42,0,0,0,1.5,2.13c1.21.89,2.26-.13,2.87-1.14a3.94,3.94,0,0,0,.81,1.22c1.27,1.22,2.55-.59,3.07-1.71a4.1,4.1,0,0,0,1,1.68c1.43,1.32,2.84-1,3.22-2,2-5.14,1.78-11,2.25-16.48a4.92,4.92,0,0,0,1.21-1.63c2.67-1.4,2.51-5.8,2.61-8,.11-2.71-2.69-2.71-2.69-2.71-10.55-1.11-20.75-8.38-23.83-11s-12-9.85-21-4.33-39.25-.12-39.25-.12l-.32,2.31c41.67,4.9,35.59,5.47,30.35,11.24s-21.54,8.61-30,11-6.76,26.14-7.48,34.23C1017.45,342,1019.72,343.6,1021,342.76Zm83.46-38.82.12-1.31,1.78.22c0,.28,0,.56-.08.84A8.24,8.24,0,0,1,1104.45,303.94Zm-3.16,9.53a32.9,32.9,0,0,1-1.25,6.29c-.1-.63-.13-1.29-.17-1.91-.07-1.41,0-2.83-.11-4.23a.53.53,0,0,1,0-.12c.11-2.73,0-5.5-.07-8.21l2.16.1h.21C1101.81,308.09,1101.62,310.79,1101.29,313.47Zm-11.62-1.4c.07-2.58,0-5.19-.06-7.74l2.76.25c0,2.7,0,5.39-.09,8.08a27.75,27.75,0,0,1-.86,6.47,16.45,16.45,0,0,1-.38-1.93c-.23-1.43-.25-2.88-.55-4.3A1.07,1.07,0,0,0,1089.67,312.07Zm-5.27-9.55c0-.44-.05-.88-.08-1.32,1,0,1.87,0,2.79,0l0,1.43C1086.18,302.59,1085.28,302.54,1084.4,302.52Zm-2.28,10.4a28.11,28.11,0,0,1-.43,6.85,18,18,0,0,1-.56-2c-.36-1.48-.5-3-.92-4.47a.92.92,0,0,0-.16-.27c-.26-3-.8-5.93-1.3-8.86.94-.07,1.87-.13,2.82-.16C1081.78,307,1082.06,310,1082.12,312.92Zm-5.63,4.77c-.4-1.32-.65-2.67-1-4-.2-3-.71-6-1.19-9l1.7-.24c.4,2.71.82,5.43,1.09,8.16a32.15,32.15,0,0,1,.14,7.07A19.09,19.09,0,0,1,1076.49,317.69Zm-8.36-13.44c-.07-.47-.15-.95-.21-1.43h0c1-.23,2.1-.43,3.16-.6l.18,1.47C1070.24,303.86,1069.19,304.05,1068.13,304.25Zm-4.73.93-1,.19c-.07-.47-.13-.94-.2-1.41,1-.17,2-.36,3-.56.06.46.11.92.17,1.39Zm-5.77,1.13-.21-1.56,2.28-.36c.06.5.13,1,.19,1.48Zm-4.53.82c-.09-.59-.16-1.18-.25-1.76l2.26-.29c.07.55.14,1.1.2,1.65Zm-4.55.74c-.1-.67-.19-1.34-.28-2,.75-.07,1.5-.14,2.26-.23.08.63.15,1.25.23,1.88Zm-1.69,6.5a42.68,42.68,0,0,1,.19,7.58c-.24-.71-.42-1.46-.59-2.18-.37-1.53-.59-3.1-1-4.62-.2-1.75-.46-3.5-.76-5.24l1.67-.23C1046.56,311.24,1046.73,312.8,1046.86,314.37Zm-8.18,6.21c-.6-1.56-1-3.19-1.7-4.72a1,1,0,0,0-1.48-.64c-.57-1.3-1.18-2.59-1.8-3.87,1-.23,2.21-.4,3.61-.57.37,1.46.73,2.92,1.06,4.39a44.66,44.66,0,0,1,1.18,7.5C1039.22,322,1038.94,321.27,1038.68,320.58Zm-10-8.2c-1-1.64-2.06-3.29-3-5a3.51,3.51,0,0,1,3-1h.09q1,2.19,2,4.36A6.26,6.26,0,0,0,1028.7,312.38Zm13-6c.14.79.26,1.57.38,2.36l-2.49.29-.26,0c-.23-.84-.47-1.68-.71-2.52Zm55.44-2.79-2.05-.22c0-.59,0-1.16,0-1.73q1.13.08,2.16.18a1.06,1.06,0,0,0-.09.37C1097.15,302.65,1097.15,303.12,1097.14,303.59Zm-7.53-.74c0-.52,0-1,0-1.55l2.78.14c0,.55,0,1.11,0,1.66Zm-15.58.4c-.08-.48-.15-1-.21-1.43.58-.08,1.15-.12,1.74-.19.06.46.11.92.18,1.38Zm-37.08,6.1a35.45,35.45,0,0,0-3.9.67c-.56-1.15-1.12-2.3-1.65-3.44,1.41.05,3,.05,4.84,0C1036.47,307.51,1036.71,308.43,1037,309.35Zm5.76,10.44c-.45-1.61-.74-3.27-1.25-4.85a1.08,1.08,0,0,0-.82-.82c-.28-1.21-.59-2.42-.92-3.62h0l2.55-.29c.21,1.39.42,2.78.59,4.18a45.63,45.63,0,0,1,.48,7.57C1043.12,321.25,1042.91,320.5,1042.71,319.79Zm1.75-11.34c-.14-.74-.27-1.48-.4-2.22l1.88-.15c.09.71.17,1.42.26,2.13Zm34-5.73c-.07-.44-.13-.88-.19-1.31,1-.07,2.06-.12,3.09-.16,0,.43,0,.86.07,1.29C1080.48,302.57,1079.5,302.63,1078.51,302.72Zm17.34,15.15c-.21-1.36-.22-2.74-.5-4.09a1.17,1.17,0,0,0-.21-.45c.16-2.81,0-5.67,0-8.48l1.94.21h0c0,2.83.05,5.65-.1,8.48a26.69,26.69,0,0,1-.81,6.16A17.49,17.49,0,0,1,1095.85,317.87Zm6-13.95-2.23-.11c0-.49,0-1,0-1.47a.82.82,0,0,0-.05-.28l2.7.3c-.06.52-.11,1.05-.16,1.57Zm-77.27,25.29c-.07.46-.14.91-.22,1.34-.41-.1-.77-.2-1-.28h-.12c.06-.6.11-1.2.17-1.83Zm-2.36,10.08c.27-1.74.51-4.07.78-6.81l1,.28A37.2,37.2,0,0,1,1022.25,339.29Zm5.49-8c-.42-.12-1.13-.28-1.87-.45.05-.26.09-.51.13-.78C1026.59,330.51,1027.18,330.91,1027.74,331.34Zm-2.76-4.62,0,.18c-.44-.28-.87-.59-1.29-.9,0-.17,0-.34.05-.52.08-.74.12-1.51.15-2.29l1.41,1.29Zm.67-4.89c-.59-.56-1.18-1.12-1.75-1.71,0-.63,0-1.26,0-1.89q1,1.17,2,2.28C1025.79,320.94,1025.72,321.36,1025.65,321.83Zm.74-4a38,38,0,0,1-2.48-3.2,29.55,29.55,0,0,1,.22-3.12l.53-1.42c.88,1.5,1.81,3,2.76,4.43A18.36,18.36,0,0,0,1026.39,317.8Zm3.15-4.13a5.26,5.26,0,0,1,1.89-1.57c.8,1.73,1.58,3.46,2.32,5.22a43.3,43.3,0,0,1,2.52,7.17c-.35-.48-.68-1-1-1.51-.68-1.28-1.42-2.53-2.18-3.76-.19-.33-.38-.67-.59-1a1.06,1.06,0,0,0-.09-.11C1031.47,316.63,1030.5,315.15,1029.54,313.67Zm19.21-4.34,2.19-.35c.2,1.71.4,3.42.54,5.14a44.69,44.69,0,0,1,.19,7.58c-.24-.71-.42-1.46-.59-2.18-.39-1.62-.61-3.29-1.06-4.89a1.12,1.12,0,0,0-.74-.84C1049.14,312.3,1049,310.82,1048.75,309.33Zm4.55-.74,2.19-.39c.23,1.89.44,3.78.61,5.68a43.67,43.67,0,0,1,.18,7.58c-.24-.71-.41-1.46-.59-2.18-.39-1.62-.61-3.29-1.06-4.89a1.11,1.11,0,0,0-.74-.84C1053.74,311.9,1053.53,310.24,1053.3,308.59Zm7.61,12.34a20.51,20.51,0,0,1-.63-2.12c-.42-1.58-.65-3.21-1.12-4.77a1.17,1.17,0,0,0-.66-.78c-.17-1.83-.41-3.66-.66-5.49l2.24-.43c.26,2.05.52,4.12.7,6.19A38.14,38.14,0,0,1,1060.91,320.93Zm5.63-.19c-.27-.66-.47-1.36-.67-2-.43-1.51-2-4.7-2.47-6.19-.19-1.9-.46-3.81-.75-5.7l1-.21,1.87-.37c.34,2.47.69,4.93.9,7.41A31.63,31.63,0,0,1,1066.54,320.74Zm1.81-15c1.05-.2,2.1-.38,3.11-.56.36,2.57.72,5.14,1,7.73a32.14,32.14,0,0,1,.06,7.07c-.27-.66-.47-1.36-.67-2-.44-1.51-2-4.72-2.47-6.21,0-.06-.07-.1-.1-.16C1069,309.6,1068.66,307.65,1068.35,305.71Zm17.75,13.65a16.63,16.63,0,0,1-.34-1.93c-.22-1.42-.23-2.86-.5-4.27-.06-3.06-.44-6.14-.73-9.17.83,0,1.68.07,2.53.14,0,2.91,0,5.84-.13,8.75A30.19,30.19,0,0,1,1086.1,319.36Zm19.25-5.63a28.84,28.84,0,0,1-1.22,6.09A16.7,16.7,0,0,1,1104,318c-.09-1.37,0-2.74-.14-4.11a.89.89,0,0,0-.09-.29c.31-2.71.42-5.47.6-8.16a11.76,11.76,0,0,0,1.78-.18C1105.88,308.06,1105.71,310.9,1105.35,313.73Z"/><path class="cls-4" d="M1166.06,133.66c-1.48,1.47-2.86,3.49-1.83,5.22,1.89,3.17,7.94,7.65,5.8,21.24s-10.41,20.26-20.64,26.29c-8.63,5.09-40.4,23.21-50.14,28.76-1.58.9-2.11,2.24-2.86,4.79,0,0-2,7.16-.26,13.06a96.87,96.87,0,0,1,14.46-10.39,3.41,3.41,0,0,1,4.45.78c.86,1.3.26,3.05-1.25,4.05a156.22,156.22,0,0,0-14.13,11.08c4.51,3.9,11.72,5.23,11.72,5.23,3.41.85,4.54-.27,6.11-1.17,8.48-4.87,33.71-20,47.77-35,8.67-9.25,16.19-12.2,20.26-13.14,1.78-.41,4.72-.67,6.46-1.19,2.28-.68,5.23-1.87,7-3.83,1.2-1.34,2.71-3.57,4.28-4.48l1.91-1.09a3,3,0,0,0,1.09-4.28l-6.52-9.79c-1-1.45-2.41-2.17-3.24-1.59s-1.57-.37-2-2.06c-.79-3.41-2.93-9.43-8.69-17.26a78.85,78.85,0,0,0-14.64-15.5A4.15,4.15,0,0,0,1166.06,133.66Z"/><path class="cls-4" d="M767.91,445.53l-6.08,32.06s-8.32-.79-8.5-3.11.56-35,.14-38.14S767.91,445.53,767.91,445.53Z"/><path class="cls-4" d="M765.05,443.21c1.68,1.34,2.86,2.32,2.86,2.32l-6.08,32.06s-.68-.06-1.65-.21Z"/><path class="cls-4" d="M755,434.47l21.67,16.61L796,475.83s35.27,6.3,37.23,5.79c.64-.16.91-.12,1,0s-.3,1.26-1.15,1.85c-1.8,1.28-5.36,2.26-10,2.73-5.47.55-18.57,1.54-29.82-2.95-4.5-1.79-7.13-7.85-9.34-12.27-.52-1-1.06-2.12-1.68-3.18-.34-.59-.7-1.24-1.07-1.91-3.09-5.61-8.31-12.93-21.81-19.72a12.7,12.7,0,0,1-6-6.6C752.54,435.19,755,434.47,755,434.47Z"/><path class="cls-4" d="M753.3,473.18c2.26,1.58,6.19,2.38,8.84,2.76l-.31,1.65s-8.32-.79-8.5-3.11C753.31,474.28,753.3,473.82,753.3,473.18Z"/><path class="cls-4" d="M753.68,433.56c.84-2.89,5.64-9.77,9.12-14.53.9-1.23,4.42-7.41,5.85-10.34,1.68.08,6.75,2.65,9.82,8.52l7.1,1.19a33.15,33.15,0,0,1,25,.15c-2.26,3.46-3.52,12.1-3.52,12.1s1.12-8.39,0,0-1.11,22.93,4.18,29.56c6.46,8.07,11.88,11,19.18,14,8.66,3.58,3.14,8,3.14,8a74.2,74.2,0,0,1-37.68-.66c-8.7-3.14-9.65-8.58-12.8-14s-6.84-14.58-22.25-22.33C755.51,442.2,752.34,438.2,753.68,433.56Z"/><polygon class="cls-4" points="773.19 449.33 779.02 450.35 784.94 418.08 779.11 417.07 773.19 449.33"/><path class="cls-4" d="M753.68,433.56c.84-2.89,5.64-9.77,9.12-14.53.22-.29.58-.86,1-1.6,4.73,4.41,13.28,15.46,5.66,33.05a55.35,55.35,0,0,0-8.66-5.32C755.51,442.2,752.34,438.2,753.68,433.56Z"/><path class="cls-4" d="M824.67,471.57c1.81.94,3.7,1.77,5.74,2.61,8.66,3.58,3.14,8,3.14,8a67.62,67.62,0,0,1-17.27,2.09C817.12,478.66,821.31,474.27,824.67,471.57Z"/><polygon class="cls-4" points="772.57 449.63 779.5 450.84 779.91 448.61 772.98 447.4 772.57 449.63"/><polygon class="cls-4" points="782 418.55 783.52 418.82 783.67 418.03 782.14 417.77 782 418.55"/><polygon class="cls-4" points="781.79 419.7 783.31 419.97 783.46 419.18 781.93 418.92 781.79 419.7"/><polygon class="cls-4" points="781.58 420.85 783.1 421.12 783.24 420.33 781.72 420.06 781.58 420.85"/><polygon class="cls-4" points="781.37 422 782.89 422.26 783.03 421.48 781.51 421.21 781.37 422"/><polygon class="cls-4" points="781.16 423.15 782.68 423.42 782.82 422.63 781.3 422.36 781.16 423.15"/><polygon class="cls-4" points="780.95 424.3 782.47 424.56 782.61 423.77 781.09 423.51 780.95 424.3"/><polygon class="cls-4" points="780.74 425.45 782.26 425.71 782.4 424.92 780.88 424.66 780.74 425.45"/><polygon class="cls-4" points="780.52 426.6 782.05 426.86 782.19 426.07 780.67 425.81 780.52 426.6"/><polygon class="cls-4" points="780.31 427.75 781.84 428.01 781.98 427.22 780.46 426.96 780.31 427.75"/><polygon class="cls-4" points="780.1 428.89 781.63 429.16 781.77 428.37 780.25 428.11 780.1 428.89"/><polygon class="cls-4" points="779.89 430.04 781.41 430.31 781.56 429.52 780.04 429.25 779.89 430.04"/><polygon class="cls-4" points="779.68 431.19 781.2 431.46 781.35 430.67 779.83 430.4 779.68 431.19"/><polygon class="cls-4" points="779.47 432.34 780.99 432.61 781.14 431.82 779.62 431.55 779.47 432.34"/><polygon class="cls-4" points="779.26 433.49 780.78 433.75 780.93 432.97 779.4 432.7 779.26 433.49"/><polygon class="cls-4" points="779.05 434.64 780.57 434.9 780.72 434.12 779.19 433.85 779.05 434.64"/><polygon class="cls-4" points="778.84 435.79 780.36 436.05 780.51 435.26 778.98 435 778.84 435.79"/><polygon class="cls-4" points="778.63 436.94 780.15 437.2 780.29 436.41 778.77 436.15 778.63 436.94"/><polygon class="cls-4" points="778.42 438.08 779.94 438.35 780.09 437.56 778.56 437.3 778.42 438.08"/><polygon class="cls-4" points="778.21 439.23 779.73 439.5 779.87 438.71 778.35 438.45 778.21 439.23"/><polygon class="cls-4" points="778 440.38 779.52 440.65 779.66 439.86 778.14 439.6 778 440.38"/><polygon class="cls-4" points="777.79 441.53 779.31 441.8 779.45 441.01 777.93 440.75 777.79 441.53"/><polygon class="cls-4" points="777.58 442.68 779.1 442.94 779.24 442.16 777.72 441.89 777.58 442.68"/><polygon class="cls-4" points="777.37 443.83 778.89 444.09 779.03 443.31 777.51 443.04 777.37 443.83"/><polygon class="cls-4" points="777.15 444.98 778.68 445.24 778.82 444.46 777.3 444.19 777.15 444.98"/><polygon class="cls-4" points="776.94 446.13 778.47 446.39 778.61 445.61 777.09 445.34 776.94 446.13"/><polygon class="cls-4" points="776.73 447.28 778.25 447.54 778.4 446.75 776.88 446.49 776.73 447.28"/><polygon class="cls-4" points="780.1 418.63 781.62 418.89 781.77 418.11 780.24 417.84 780.1 418.63"/><polygon class="cls-4" points="779.89 419.78 781.41 420.04 781.56 419.26 780.03 418.99 779.89 419.78"/><polygon class="cls-4" points="779.68 420.93 781.2 421.19 781.35 420.4 779.82 420.14 779.68 420.93"/><polygon class="cls-4" points="779.47 422.08 780.99 422.34 781.14 421.55 779.61 421.29 779.47 422.08"/><polygon class="cls-4" points="779.26 423.23 780.78 423.49 780.92 422.7 779.4 422.44 779.26 423.23"/><polygon class="cls-4" points="779.05 424.37 780.57 424.64 780.71 423.85 779.19 423.59 779.05 424.37"/><polygon class="cls-4" points="778.84 425.52 780.36 425.79 780.5 425 778.98 424.74 778.84 425.52"/><polygon class="cls-4" points="778.63 426.67 780.15 426.94 780.29 426.15 778.77 425.88 778.63 426.67"/><polygon class="cls-4" points="778.41 427.82 779.94 428.09 780.08 427.3 778.56 427.03 778.41 427.82"/><polygon class="cls-4" points="778.2 428.97 779.73 429.24 779.87 428.45 778.35 428.18 778.2 428.97"/><polygon class="cls-4" points="777.99 430.12 779.52 430.38 779.66 429.6 778.14 429.33 777.99 430.12"/><polygon class="cls-4" points="777.78 431.27 779.31 431.53 779.45 430.75 777.93 430.48 777.78 431.27"/><polygon class="cls-4" points="777.57 432.42 779.1 432.68 779.24 431.89 777.72 431.63 777.57 432.42"/><polygon class="cls-4" points="777.36 433.57 778.88 433.83 779.03 433.04 777.51 432.78 777.36 433.57"/><polygon class="cls-4" points="777.15 434.71 778.67 434.98 778.82 434.19 777.29 433.93 777.15 434.71"/><polygon class="cls-4" points="776.94 435.86 778.46 436.13 778.61 435.34 777.09 435.08 776.94 435.86"/><polygon class="cls-4" points="776.73 437.01 778.25 437.28 778.4 436.49 776.87 436.23 776.73 437.01"/><polygon class="cls-4" points="776.52 438.16 778.04 438.43 778.19 437.64 776.66 437.38 776.52 438.16"/><polygon class="cls-4" points="776.31 439.31 777.83 439.57 777.98 438.79 776.45 438.52 776.31 439.31"/><polygon class="cls-4" points="776.1 440.46 777.62 440.72 777.76 439.94 776.24 439.67 776.1 440.46"/><polygon class="cls-4" points="775.89 441.61 777.41 441.87 777.55 441.09 776.03 440.82 775.89 441.61"/><polygon class="cls-4" points="775.68 442.76 777.2 443.02 777.34 442.24 775.82 441.97 775.68 442.76"/><polygon class="cls-4" points="775.47 443.9 776.99 444.17 777.13 443.38 775.61 443.12 775.47 443.9"/><polygon class="cls-4" points="775.26 445.05 776.78 445.32 776.92 444.53 775.4 444.27 775.26 445.05"/><polygon class="cls-4" points="775.04 446.2 776.57 446.47 776.71 445.68 775.19 445.42 775.04 446.2"/><polygon class="cls-4" points="774.83 447.35 776.36 447.62 776.5 446.83 774.98 446.56 774.83 447.35"/><polygon class="cls-4" points="776.3 447.61 776.72 447.68 782.2 417.78 781.78 417.7 776.3 447.61"/><polygon class="cls-4" points="779.81 420.21 783.16 420.8 783.67 417.98 780.33 417.4 779.81 420.21"/><polygon class="cls-4" points="780.93 420.18 782.12 420.39 782.52 418.17 781.34 417.97 780.93 420.18"/><path class="cls-4" d="M777.45,425.69c-.52,2.82.61,4.16,2.27,4.45s3.2-.59,3.71-3.41-1.84-6.82-1.84-6.82S778,422.86,777.45,425.69Z"/><path class="cls-4" d="M780,428.39c1.35.24,1.83-1.23,2-2.12a7.4,7.4,0,0,0-.88-3.93,7.58,7.58,0,0,0-2.23,3.39C778.76,426.62,778.69,428.16,780,428.39Z"/><path class="cls-7" d="M783.07,467.49c-3.15-5.42-6.84-14.58-22.25-22.33-5.31-3-8.48-7-7.14-11.6a15.23,15.23,0,0,1,1.32-2.87c1.83,6.83,11.33,12.61,21.7,21,13,10.53,12.18,22.66,23.33,27,8.76,3.44,27.43,2.08,35,1.34a5.48,5.48,0,0,1-1.51,2,74.2,74.2,0,0,1-37.68-.66C787.17,478.35,786.22,472.91,783.07,467.49Z"/><path class="cls-5" d="M898,376.36l16.84,5.74s-.8,3.3-2,3.14-18.64-3.8-20.35-3.95S898,376.36,898,376.36Z"/><path class="cls-5" d="M896.59,377.28l1.37-.92,16.84,5.74s-.07.27-.19.66Z"/><path class="cls-5" d="M891.47,380.48l9.85-7.1L915.4,368s5-13.68,4.77-14.53c0-.28,0-.38.05-.39a1.51,1.51,0,0,1,.94.65,8.38,8.38,0,0,1,1,4.35c.05,2.28,0,7.7-2.92,11.81-1.16,1.64-4.51,2.09-7,2.54-.58.1-1.18.21-1.77.36l-1.07.24a20.09,20.09,0,0,0-11.51,6.84,6,6,0,0,1-3.79,1.76C891.75,381.55,891.47,380.48,891.47,380.48Z"/><path class="cls-5" d="M912.05,385.12a7.17,7.17,0,0,0,1.88-3.31l.87.29s-.8,3.3-2,3.14Z"/><path class="cls-5" d="M890.93,380.91c-1.51-.63-5-3.28-7.35-5.19-.61-.49-3.75-2.55-5.25-3.43.11-.67,1.72-2.47,5-3.12l.95-2.76a10.55,10.55,0,0,1,1.21-10.14c1.75,1.27,6.31,2.67,6.31,2.67h0c4.43,1.31,12.19,2.79,16,1.32a16.17,16.17,0,0,0,8.33-6.36c2.3-3.15,4.39-.46,4.39-.46a23.29,23.29,0,0,1-2.06,15.24c-2.06,3.21-5,3-8,3.77s-8.1,1.28-12.93,6.75C895.62,381.05,893.34,381.93,890.93,380.91Z"/><polygon class="cls-5" points="900.23 374.6 901.03 372.34 884.08 366.64 883.27 368.9 900.23 374.6"/><path class="cls-5" d="M890.93,380.91c-1.51-.63-5-3.28-7.35-5.19-.14-.11-.43-.32-.81-.57,2.57-1.47,8.86-3.82,17.9,1.08a19.82,19.82,0,0,0-3.23,3C895.62,381.05,893.34,381.93,890.93,380.91Z"/><path class="cls-5" d="M914.42,356a21.63,21.63,0,0,0,1.66-2.06c2.3-3.15,4.39-.46,4.39-.46a22.35,22.35,0,0,1,.33,7.23A13.63,13.63,0,0,1,914.42,356Z"/><polygon class="cls-5" points="900.36 374.89 901.31 372.19 900.14 371.8 899.19 374.49 900.36 374.89"/><polygon class="cls-5" points="884.2 367.88 884.41 367.29 883.99 367.15 883.78 367.74 884.2 367.88"/><polygon class="cls-5" points="884.8 368.08 885.01 367.49 884.6 367.35 884.39 367.94 884.8 368.08"/><polygon class="cls-5" points="885.4 368.28 885.61 367.69 885.2 367.55 884.99 368.14 885.4 368.28"/><polygon class="cls-5" points="886.01 368.49 886.22 367.89 885.8 367.76 885.59 368.35 886.01 368.49"/><polygon class="cls-5" points="886.61 368.69 886.82 368.1 886.41 367.96 886.2 368.55 886.61 368.69"/><polygon class="cls-5" points="887.22 368.89 887.42 368.3 887.01 368.16 886.8 368.75 887.22 368.89"/><polygon class="cls-5" points="887.82 369.1 888.03 368.5 887.62 368.37 887.4 368.96 887.82 369.1"/><polygon class="cls-5" points="888.42 369.3 888.63 368.71 888.22 368.57 888.01 369.16 888.42 369.3"/><polygon class="cls-5" points="889.03 369.5 889.24 368.91 888.82 368.77 888.61 369.36 889.03 369.5"/><polygon class="cls-5" points="889.63 369.7 889.84 369.11 889.43 368.97 889.22 369.56 889.63 369.7"/><polygon class="cls-5" points="890.23 369.91 890.44 369.32 890.03 369.18 889.82 369.77 890.23 369.91"/><polygon class="cls-5" points="890.84 370.11 891.05 369.52 890.63 369.38 890.42 369.97 890.84 370.11"/><polygon class="cls-5" points="891.44 370.31 891.65 369.72 891.24 369.58 891.03 370.17 891.44 370.31"/><polygon class="cls-5" points="892.04 370.52 892.25 369.93 891.84 369.79 891.63 370.38 892.04 370.52"/><polygon class="cls-5" points="892.65 370.72 892.86 370.13 892.44 369.99 892.23 370.58 892.65 370.72"/><polygon class="cls-5" points="893.25 370.92 893.46 370.33 893.05 370.19 892.84 370.78 893.25 370.92"/><polygon class="cls-5" points="893.86 371.13 894.07 370.53 893.65 370.39 893.44 370.99 893.86 371.13"/><polygon class="cls-5" points="894.46 371.33 894.67 370.74 894.25 370.6 894.04 371.19 894.46 371.33"/><polygon class="cls-5" points="895.06 371.53 895.27 370.94 894.86 370.8 894.65 371.39 895.06 371.53"/><polygon class="cls-5" points="895.67 371.73 895.88 371.14 895.46 371 895.25 371.6 895.67 371.73"/><polygon class="cls-5" points="896.27 371.94 896.48 371.35 896.07 371.21 895.86 371.8 896.27 371.94"/><polygon class="cls-5" points="896.87 372.14 897.08 371.55 896.67 371.41 896.46 372 896.87 372.14"/><polygon class="cls-5" points="897.48 372.34 897.69 371.75 897.27 371.61 897.06 372.2 897.48 372.34"/><polygon class="cls-5" points="898.08 372.55 898.29 371.95 897.88 371.82 897.67 372.41 898.08 372.55"/><polygon class="cls-5" points="898.68 372.75 898.89 372.16 898.48 372.02 898.27 372.61 898.68 372.75"/><polygon class="cls-5" points="899.29 372.95 899.5 372.36 899.09 372.22 898.88 372.81 899.29 372.95"/><polygon class="cls-5" points="884.15 368.66 884.36 368.06 883.95 367.93 883.74 368.52 884.15 368.66"/><polygon class="cls-5" points="884.75 368.86 884.97 368.27 884.55 368.13 884.34 368.72 884.75 368.86"/><polygon class="cls-5" points="885.36 369.06 885.57 368.47 885.15 368.33 884.95 368.92 885.36 369.06"/><polygon class="cls-5" points="885.96 369.26 886.17 368.67 885.76 368.54 885.55 369.13 885.96 369.26"/><polygon class="cls-5" points="886.57 369.47 886.78 368.88 886.36 368.74 886.15 369.33 886.57 369.47"/><polygon class="cls-5" points="887.17 369.67 887.38 369.08 886.97 368.94 886.76 369.53 887.17 369.67"/><polygon class="cls-5" points="887.77 369.87 887.98 369.28 887.57 369.14 887.36 369.74 887.77 369.87"/><polygon class="cls-5" points="888.38 370.08 888.59 369.49 888.17 369.35 887.96 369.94 888.38 370.08"/><polygon class="cls-5" points="888.98 370.28 889.19 369.69 888.78 369.55 888.57 370.14 888.98 370.28"/><polygon class="cls-5" points="889.59 370.48 889.79 369.89 889.38 369.75 889.17 370.34 889.59 370.48"/><polygon class="cls-5" points="890.19 370.69 890.4 370.1 889.99 369.96 889.77 370.55 890.19 370.69"/><polygon class="cls-5" points="890.79 370.89 891 370.3 890.59 370.16 890.38 370.75 890.79 370.89"/><polygon class="cls-5" points="891.4 371.09 891.61 370.5 891.19 370.36 890.98 370.95 891.4 371.09"/><polygon class="cls-5" points="892 371.3 892.21 370.7 891.8 370.56 891.59 371.16 892 371.3"/><polygon class="cls-5" points="892.6 371.5 892.81 370.91 892.4 370.77 892.19 371.36 892.6 371.5"/><polygon class="cls-5" points="893.21 371.7 893.42 371.11 893 370.97 892.79 371.56 893.21 371.7"/><polygon class="cls-5" points="893.81 371.9 894.02 371.31 893.61 371.17 893.4 371.76 893.81 371.9"/><polygon class="cls-5" points="894.41 372.11 894.62 371.52 894.21 371.38 894 371.97 894.41 372.11"/><polygon class="cls-5" points="895.02 372.31 895.23 371.72 894.81 371.58 894.6 372.17 895.02 372.31"/><polygon class="cls-5" points="895.62 372.51 895.83 371.92 895.42 371.78 895.21 372.37 895.62 372.51"/><polygon class="cls-5" points="896.23 372.72 896.43 372.13 896.02 371.99 895.81 372.58 896.23 372.72"/><polygon class="cls-5" points="896.83 372.92 897.04 372.33 896.63 372.19 896.42 372.78 896.83 372.92"/><polygon class="cls-5" points="897.43 373.12 897.64 372.53 897.23 372.39 897.02 372.98 897.43 373.12"/><polygon class="cls-5" points="898.04 373.32 898.25 372.73 897.83 372.6 897.62 373.19 898.04 373.32"/><polygon class="cls-5" points="898.64 373.53 898.85 372.94 898.44 372.8 898.23 373.39 898.64 373.53"/><polygon class="cls-5" points="899.24 373.73 899.45 373.14 899.04 373 898.83 373.59 899.24 373.73"/><polygon class="cls-5" points="899.45 373.16 899.5 373 883.79 367.72 883.73 367.88 899.45 373.16"/><polygon class="cls-5" points="884.98 368.94 885.45 367.63 883.97 367.14 883.51 368.44 884.98 368.94"/><polygon class="cls-5" points="885.02 368.48 885.18 368.02 884.02 367.63 883.85 368.08 885.02 368.48"/><path class="cls-5" d="M887.8,370.46c1.48.5,2.25.17,2.48-.47s-.17-1.36-1.66-1.86a8.21,8.21,0,0,0-3.72.05A7.93,7.93,0,0,0,887.8,370.46Z"/><path class="cls-5" d="M889.36,369.68c.18-.53-.57-.87-1-1a5,5,0,0,0-2.14,0,4.78,4.78,0,0,0,1.71,1.25C888.36,370,889.17,370.2,889.36,369.68Z"/><path class="cls-8" d="M910.37,372.45c-3,.72-8.1,1.28-12.93,6.75-1.82,1.85-4.1,2.73-6.51,1.71a10.85,10.85,0,0,1-1.48-.82c3.73,0,7.24-3.32,12.21-6.67,6.21-4.19,12.65-2.63,15.49-6.71,2.23-3.21,2.34-10.93,2.29-14.09a3.16,3.16,0,0,1,1,.82,23.29,23.29,0,0,1-2.06,15.24C916.35,371.89,913.4,371.72,910.37,372.45Z"/><path class="cls-4" d="M719.63,435.25l-12,16.75s-3.76-2.25-3.19-3.6,10.16-19.58,10.85-21.46S719.63,435.25,719.63,435.25Z"/><path class="cls-4" d="M718.92,433.33c.42,1.12.71,1.92.71,1.92l-12,16.75s-.31-.19-.74-.48Z"/><path class="cls-4" d="M716.58,426.22l5.66,14.06,2.27,18.13s15.09,11.19,16.17,11.34c.35,0,.47.12.46.21s-.5.64-1.07.8a11,11,0,0,1-5.56-.64c-2.78-.87-9.33-3.15-13.44-8.12-1.64-2-1.19-6-1-8.94,0-.7.09-1.42.09-2.15q0-.62,0-1.32c.11-3.82-.32-9.08-4.86-15.83a7.33,7.33,0,0,1-1-5C715.2,426.1,716.58,426.22,716.58,426.22Z"/><path class="cls-4" d="M704.82,447.66a10.23,10.23,0,0,0,3.45,3.47l-.61.87s-3.76-2.25-3.19-3.6C704.52,448.28,704.64,448,704.82,447.66Z"/><path class="cls-4" d="M716.21,425.43c1.22-1.45,5.46-4.29,8.48-6.21.77-.5,4.2-3.22,5.71-4.56.79.4,2.48,3,2.29,6.93l3.06,2.2a14.84,14.84,0,0,1,11.93,5.51c-2.07,1.46-5.11,6.06-5.11,6.06s2.91-4.49,0,0-7,12.67-6.35,17.55a21.16,21.16,0,0,0,5.22,12c3.13,3.9-.75,5.17-.75,5.17a32.8,32.8,0,0,1-17.84-8.54c-3.28-3.65-2.19-6.92-2.17-10.66s.86-9.7-4.32-17.4C714.64,430.69,714.26,427.75,716.21,425.43Z"/><polygon class="cls-4" points="721.08 438.54 723.59 440.38 735.54 423.48 733.04 421.65 721.08 438.54"/><path class="cls-4" d="M716.21,425.43c1.22-1.45,5.46-4.29,8.48-6.21.18-.12.51-.37.94-.69,1,3.51,2,11.59-6.65,19.85a27.1,27.1,0,0,0-2.63-4.87C714.64,430.69,714.26,427.75,716.21,425.43Z"/><path class="cls-4" d="M739.42,462.23a32.06,32.06,0,0,0,2,2.71c3.13,3.9-.75,5.17-.75,5.17a30.6,30.6,0,0,1-8.86-2.57A14.61,14.61,0,0,1,739.42,462.23Z"/><polygon class="cls-4" points="720.7 438.57 723.68 440.75 724.5 439.59 721.53 437.41 720.7 438.57"/><polygon class="cls-4" points="734 423.11 734.65 423.59 734.95 423.18 734.29 422.7 734 423.11"/><polygon class="cls-4" points="733.58 423.71 734.23 424.19 734.52 423.78 733.87 423.3 733.58 423.71"/><polygon class="cls-4" points="733.15 424.31 733.8 424.79 734.1 424.38 733.44 423.9 733.15 424.31"/><polygon class="cls-4" points="732.73 424.91 733.38 425.39 733.67 424.98 733.02 424.5 732.73 424.91"/><polygon class="cls-4" points="732.3 425.52 732.95 426 733.24 425.58 732.59 425.1 732.3 425.52"/><polygon class="cls-4" points="731.87 426.12 732.53 426.6 732.82 426.18 732.16 425.7 731.87 426.12"/><polygon class="cls-4" points="731.45 426.72 732.1 427.2 732.39 426.79 731.74 426.31 731.45 426.72"/><polygon class="cls-4" points="731.02 427.32 731.67 427.8 731.97 427.39 731.31 426.91 731.02 427.32"/><polygon class="cls-4" points="730.6 427.92 731.25 428.4 731.54 427.99 730.89 427.51 730.6 427.92"/><polygon class="cls-4" points="730.17 428.52 730.82 429 731.12 428.59 730.46 428.11 730.17 428.52"/><polygon class="cls-4" points="729.75 429.13 730.4 429.6 730.69 429.19 730.04 428.71 729.75 429.13"/><polygon class="cls-4" points="729.32 429.73 729.97 430.2 730.26 429.79 729.61 429.31 729.32 429.73"/><polygon class="cls-4" points="728.89 430.33 729.55 430.81 729.84 430.39 729.18 429.92 728.89 430.33"/><polygon class="cls-4" points="728.47 430.93 729.12 431.41 729.41 431 728.76 430.52 728.47 430.93"/><polygon class="cls-4" points="728.04 431.53 728.7 432.01 728.99 431.6 728.33 431.12 728.04 431.53"/><polygon class="cls-4" points="727.62 432.13 728.27 432.61 728.56 432.2 727.91 431.72 727.62 432.13"/><polygon class="cls-4" points="727.19 432.74 727.84 433.21 728.14 432.8 727.48 432.32 727.19 432.74"/><polygon class="cls-4" points="726.76 433.34 727.42 433.81 727.71 433.4 727.06 432.92 726.76 433.34"/><polygon class="cls-4" points="726.34 433.94 726.99 434.42 727.28 434 726.63 433.52 726.34 433.94"/><polygon class="cls-4" points="725.91 434.54 726.57 435.02 726.86 434.61 726.21 434.13 725.91 434.54"/><polygon class="cls-4" points="725.49 435.14 726.14 435.62 726.43 435.21 725.78 434.73 725.49 435.14"/><polygon class="cls-4" points="725.06 435.74 725.72 436.22 726.01 435.81 725.35 435.33 725.06 435.74"/><polygon class="cls-4" points="724.64 436.34 725.29 436.82 725.58 436.41 724.93 435.93 724.64 436.34"/><polygon class="cls-4" points="724.21 436.94 724.87 437.42 725.16 437.01 724.5 436.53 724.21 436.94"/><polygon class="cls-4" points="723.78 437.55 724.44 438.03 724.73 437.61 724.08 437.13 723.78 437.55"/><polygon class="cls-4" points="723.36 438.15 724.01 438.63 724.3 438.22 723.65 437.74 723.36 438.15"/><polygon class="cls-4" points="733.07 422.74 733.73 423.22 734.02 422.81 733.36 422.33 733.07 422.74"/><polygon class="cls-4" points="732.65 423.34 733.3 423.82 733.59 423.41 732.94 422.93 732.65 423.34"/><polygon class="cls-4" points="732.22 423.94 732.87 424.42 733.17 424.01 732.51 423.53 732.22 423.94"/><polygon class="cls-4" points="731.79 424.55 732.45 425.02 732.74 424.61 732.09 424.13 731.79 424.55"/><polygon class="cls-4" points="731.37 425.15 732.02 425.63 732.32 425.21 731.66 424.73 731.37 425.15"/><polygon class="cls-4" points="730.94 425.75 731.6 426.23 731.89 425.81 731.24 425.34 730.94 425.75"/><polygon class="cls-4" points="730.52 426.35 731.17 426.83 731.46 426.42 730.81 425.94 730.52 426.35"/><polygon class="cls-4" points="730.09 426.95 730.75 427.43 731.04 427.02 730.38 426.54 730.09 426.95"/><polygon class="cls-4" points="729.67 427.55 730.32 428.03 730.61 427.62 729.96 427.14 729.67 427.55"/><polygon class="cls-4" points="729.24 428.15 729.89 428.63 730.19 428.22 729.53 427.74 729.24 428.15"/><polygon class="cls-4" points="728.82 428.76 729.47 429.24 729.76 428.82 729.11 428.35 728.82 428.76"/><polygon class="cls-4" points="728.39 429.36 729.04 429.84 729.33 429.43 728.68 428.95 728.39 429.36"/><polygon class="cls-4" points="727.96 429.96 728.62 430.44 728.91 430.03 728.25 429.55 727.96 429.96"/><polygon class="cls-4" points="727.54 430.56 728.19 431.04 728.48 430.63 727.83 430.15 727.54 430.56"/><polygon class="cls-4" points="727.11 431.16 727.77 431.64 728.06 431.23 727.4 430.75 727.11 431.16"/><polygon class="cls-4" points="726.69 431.76 727.34 432.24 727.63 431.83 726.98 431.35 726.69 431.76"/><polygon class="cls-4" points="726.26 432.37 726.91 432.85 727.21 432.43 726.55 431.95 726.26 432.37"/><polygon class="cls-4" points="725.84 432.97 726.49 433.45 726.78 433.04 726.13 432.56 725.84 432.97"/><polygon class="cls-4" points="725.41 433.57 726.06 434.05 726.36 433.64 725.7 433.16 725.41 433.57"/><polygon class="cls-4" points="724.98 434.17 725.64 434.65 725.93 434.24 725.27 433.76 724.98 434.17"/><polygon class="cls-4" points="724.56 434.77 725.21 435.25 725.5 434.84 724.85 434.36 724.56 434.77"/><polygon class="cls-4" points="724.13 435.37 724.79 435.85 725.08 435.44 724.42 434.96 724.13 435.37"/><polygon class="cls-4" points="723.71 435.98 724.36 436.45 724.65 436.04 724 435.56 723.71 435.98"/><polygon class="cls-4" points="723.28 436.58 723.93 437.06 724.23 436.64 723.57 436.17 723.28 436.58"/><polygon class="cls-4" points="722.86 437.18 723.51 437.66 723.8 437.25 723.15 436.77 722.86 437.18"/><polygon class="cls-4" points="722.43 437.78 723.08 438.26 723.38 437.85 722.72 437.37 722.43 437.78"/><polygon class="cls-4" points="723.06 438.24 723.24 438.37 734.32 422.71 734.14 422.58 723.06 438.24"/><polygon class="cls-4" points="732.49 423.57 733.92 424.62 734.96 423.15 733.53 422.1 732.49 423.57"/><polygon class="cls-4" points="733.03 423.8 733.54 424.17 734.36 423.01 733.85 422.63 733.03 423.8"/><path class="cls-4" d="M729.81,426.14c-1,1.48-.89,2.48-.18,3s1.7.36,2.75-1.12a8.94,8.94,0,0,0,1-4.23A8.55,8.55,0,0,0,729.81,426.14Z"/><path class="cls-4" d="M730.28,428.23c.58.42,1.22-.3,1.55-.77a5.36,5.36,0,0,0,.7-2.4,5,5,0,0,0-2,1.43C730.17,427,729.7,427.8,730.28,428.23Z"/><path class="cls-7" d="M720.67,450.91c0-3.73.86-9.7-4.32-17.4-1.71-2.82-2.09-5.76-.14-8.08a11,11,0,0,1,1.44-1.34c-1,4.25,1.86,9.56,4.43,16.56,3.22,8.74-.58,15.41,3.52,20.29,3.22,3.83,12.53,7.11,16.38,8.34a3.58,3.58,0,0,1-1.3.83,32.8,32.8,0,0,1-17.84-8.54C719.56,457.92,720.65,454.65,720.67,450.91Z"/><path class="cls-4" d="M1258.44,192.41s-4.54-15.07-3.64-22.45c.86-7.06,4.77-11.18,4.88-12.89.2-3.28-4.37-5.89-4.37-5.89s-6.22-6.87-28.71,26.83c-2,2.14-8,7.47-7,13.94a45,45,0,0,0,24.29,14c2.75.57,4.13-.43,3.68-1.9s-5.21-5.08-2.86-8.6,12.66-1.66,12.66-1.66Z"/><path class="cls-4" d="M1236.49,164.38c-2.88,3.58-6.16,8.05-9.89,13.63-.78.83-2.16,2.16-3.5,3.84,1.89-.28,3.42-.86,3.88-1.95,1.5-3.53,10.11-14.57,10.11-14.57Z"/><path class="cls-4" d="M1257.39,193.76l1-1.35a106.86,106.86,0,0,1-3.58-17c-3,.35-7.95,2.09-6.68,9.85.5,3.08,1,5.81,1.42,8.15A33.38,33.38,0,0,1,1257.39,193.76Z"/><path class="cls-4" d="M1243.85,205.91h.06c2.75.57,4.13-.43,3.68-1.9s-5.21-5.08-2.86-8.6,12.66-1.66,12.66-1.66l.87-1.13c-3.6-1.31-13.78-4.3-17.92,2.1C1237.83,198.62,1240.26,202.71,1243.85,205.91Z"/><path class="cls-4" d="M1219.62,192q1.19,1.34,2.4,2.49A35.44,35.44,0,0,0,1241.77,180c5.68-8.73,6.45-20.35,6.32-27.23a29.62,29.62,0,0,0-2.72,2.11,42.7,42.7,0,0,1-7.24,20.06c-4.48,6.59-11.5,8.71-16.71,9.32A11.5,11.5,0,0,0,1219.62,192Z"/><path class="cls-4" d="M1233.66,167.2c3.77,1,4.51.34,6.27-2.09,1.94-2.69,10.15-9.81,12.29-10.54s3.63.82,5.47,1.63a4.14,4.14,0,0,0,2.4.3c-.39-2.92-4-5.22-4.58-5.58a3,3,0,0,0-1.39-.64c-2.36-.45-8,.95-19.35,15.48Q1234.22,166.46,1233.66,167.2Z"/><path class="cls-4" d="M1219.18,191.85l0,.13.11.12c.83.94,1.68,1.82,2.54,2.64a39.85,39.85,0,0,1,5.58-11c2.37-3.2.06-5.55-1-6.38l-.24.35-.66.69a38.27,38.27,0,0,0-3,3.35C1219.78,185.3,1218.68,188.6,1219.18,191.85Z"/><path class="cls-4" d="M1242.12,178.32l13.81.38a41.1,41.1,0,0,1-.58-6.43l-9.68-.27A7.21,7.21,0,0,0,1242.12,178.32Z"/><path class="cls-4" d="M1257.37,163.51l-8.25-.22a7.21,7.21,0,0,0-3.56,6.31l10,.28A23.79,23.79,0,0,1,1257.37,163.51Z"/><path class="cls-4" d="M1257.84,187.9c-.46-1.85-1-4.11-1.44-6.45l-13.76-.38a7.21,7.21,0,0,0-3.56,6.32Z"/><path class="cls-4" d="M1257.84,187.9c-.46-1.85-1-4.11-1.44-6.45l-6.2-.17c0,2,.07,4.1.25,6.42Z"/><path class="cls-4" d="M1255.93,178.7a41.1,41.1,0,0,1-.58-6.43l-4.39-.12a48.11,48.11,0,0,0-.69,6.39Z"/><path class="cls-4" d="M1255.51,169.88a23.79,23.79,0,0,1,1.86-6.37l-3.48-.09a25,25,0,0,0-2.42,6.35Z"/><path class="cls-4" d="M787.48,404.29S786.24,410,789.3,410s13.16-1.59,14.72-2.64c-.67-3.81.91-4.62,4.19-7.29s10.48-8,19.32-10.07c6.62-1.57,16.86-.58,23.08.55,2.07.38,7.34,3.15,11.39,2,1.55-4.08,1.5-18-1.82-18.89s-21.93,6-21.93,6l-16.73,3.1-15.5,6.2L799.54,392l-5.8,5.25Z"/><path class="cls-4" d="M860.18,373.61c3.32.85,3.37,14.81,1.82,18.89a9.16,9.16,0,0,1-3.84.15c-3.29-2.52-7.07-7.44-8.41-16.91C854.26,374.36,858.71,373.23,860.18,373.61Z"/><path class="cls-4" d="M861.05,374.12c-2.07.15-8.63,1.87-14.16,4.26-14.85,6.39-20,6.55-25.18,7.14a53.8,53.8,0,0,0-9,1.58A42.55,42.55,0,0,0,787.3,406a1.3,1.3,0,0,1-.55-.73c.15-.23,1.36-2.36,3-4.73a41.77,41.77,0,0,1,23.3-16.23,55.9,55.9,0,0,1,8.74-2.13c3.88-.44,7.86-.89,16.25-4l-.27-2.78s15.67-7.79,23.06-7.61A13.89,13.89,0,0,1,861.05,374.12Z"/><path class="cls-4" d="M861.25,370.17c-9.68,1.58-19.94,6.16-23.2,7.63l-.24-2.45s15.67-7.79,23.06-7.61A21.79,21.79,0,0,1,861.25,370.17Z"/><path class="cls-4" d="M801.3,408.07a4.88,4.88,0,0,1-.18,1.08,85.53,85.53,0,0,1-11,1.68,5,5,0,0,1-.06-1.11,7.1,7.1,0,0,1,5.94-6.19C799.11,403.07,801.48,405.1,801.3,408.07Z"/><path class="cls-4" d="M792.22,409.4a4,4,0,0,1,2.76-2.92,4.41,4.41,0,0,1,.87-.21,3.24,3.24,0,0,1,2.62.63,1.81,1.81,0,0,1,.68,1.48,2.47,2.47,0,0,1-.51,1.29c-2,.36-4.16.69-6,.91A1.69,1.69,0,0,1,792.22,409.4Z"/><path class="cls-4" d="M1204.16,210.7a2.21,2.21,0,0,1-1.57-.08l-3.39-8.44s.42.49.62-.29Z"/><path class="cls-4" d="M1230.92,234.14s-4-6.11-3.94-10.61c0,0-1.28-15-7.43-15.09,0,0-13.24,1.91-18,2.19,0,0-6.62-.07-17.93-1.2-3.7-.36-5.4.22-13.89,5.11,0,0-15.33,8.19-15.48,10.68,0,0-.33,3.15,5.88,3.14a65.76,65.76,0,0,0,8.49-1.09s7.47-2.38,13.66,1.81c1.22.82,6,2.86,10.18,7.81a26.69,26.69,0,0,1,5.79,10.09s22-9.58,27.7-7C1225.92,239.93,1235.83,242.45,1230.92,234.14Z"/><path class="cls-4" d="M1221.34,208.94s-10.68-10-11-11c0,0-9.27,2.83-10.38,4.15l4.1,8.32S1217.7,208.7,1221.34,208.94Z"/><path class="cls-4" d="M1210.33,198.06s-.87-1.76-3.4-.49l-7.55,3.44.54,1.09Z"/><path class="cls-4" d="M1199.92,202.1l-.54-1.09s.08.06-.41.7l.32.69S1199.33,202.52,1199.92,202.1Z"/><path class="cls-4" d="M1192.82,235.51a2.73,2.73,0,0,0,3.23-.81l10-11.45,15.45-.46a2.66,2.66,0,0,0,2.67-1.95c.34-2.32-2.32-2.48-2.32-2.48a1.93,1.93,0,0,0-2.11,1.52,1.71,1.71,0,0,0,2.58,1.34c.52-.62-.32-.66-.32-.66-1.23.41-1.22-1-1.22-1a1.62,1.62,0,0,1,2.45.61c.71,2-2,1.83-2,1.83l-15.53.65L1195.55,234s-1.54,2.12-2.69.34c0,0-.8-1.83,1-2.24,0,0,1.15.89,0,1.56,0,0-.49.67.33.66a1.64,1.64,0,0,0,.54-2.8,2,2,0,0,0-2.54.65S1190.75,234.31,1192.82,235.51Z"/><path class="cls-4" d="M1204.4,237.48c1,1,2.32-.32,2.32-.32,1.08-1.48,3.89-4.75,3.89-4.75l5.68.28s1.87-.23,1.71-1.56c0,0-.19-1-2-1l-6.61-.14-4.29,5.25C1203.68,236.69,1204.4,237.48,1204.4,237.48Zm.8-1.14,4.67-5.42,6.71.1s1.15.69-.28.91l-6-.19-4.18,4.95C1205,237.64,1205.2,236.34,1205.2,236.34Z"/><path class="cls-4" d="M1199.09,226.72c1,.95,2.32-.33,2.32-.33,1.08-1.48,3.89-4.75,3.89-4.75l5.68.28s1.87-.22,1.71-1.56c0,0-.19-1.05-2-1l-6.61-.14-4.29,5.25C1198.37,225.92,1199.09,226.72,1199.09,226.72Zm.79-1.15,4.68-5.42,6.71.1s1.15.69-.28.91l-6-.19-4.18,4.95C1199.72,226.87,1199.88,225.57,1199.88,225.57Z"/><path class="cls-4" d="M1197.94,239.43a2.41,2.41,0,0,0,2.86-2.8s-1.37-2.55-3.22.05c0,0-.18,1.43.85,1.17a.85.85,0,0,0,.16-.56.65.65,0,0,1,.88-.58s.64.3-.15,1.26a1.39,1.39,0,0,1-2.11-.36,2.27,2.27,0,0,1,.9-2.53l1.54-1.81,1,2.07a1.45,1.45,0,0,0,2.41-1.12l-1.55-3.16.22-.27,1,1.94a1.45,1.45,0,0,0,2.41-1.13l-1.49-3,.32-.37.92,1.86a1.45,1.45,0,0,0,2.41-1.13l-1.45-2.94,1-1.19,1.58,0,1.45,3c2.23,1.23,2.42-1.13,2.42-1.13l-.92-1.87h.43l1.5,3.05c2.23,1.23,2.42-1.13,2.42-1.13l-1-2h.42l1.56,3.15c2.22,1.24,2.41-1.12,2.41-1.12l-1-2.08,2.42,0a2.39,2.39,0,0,1,2.59.9c.6,1.45-1,1.83-1,1.83-1.26,0-1.1-.68-1.1-.68a.66.66,0,0,1,1-.3.84.84,0,0,0,.55.22c.85-.61-.41-1.37-.41-1.37-3.24-.22-2.05,2.42-2.05,2.42a2.46,2.46,0,0,0,4-.43c1.17-3.09-2.31-3.68-2.31-3.68l-15.4.47-10,11.4S1194.73,238.38,1197.94,239.43Zm13.75-12.75c-.08,1.19-1.29.61-1.29.61l-1.25-2.51,1.58,0Zm3.42,0c-.07,1.19-1.28.61-1.28.61l-1.3-2.61,1.58,0Zm2.38-2.06,1,2.12c-.07,1.19-1.28.61-1.28.61l-1.36-2.73,1.64,0Zm-15.07,9.66s-.29,1.28-1.29.6l-1.05-2.13,0,0,1-1.23Zm2-2.61s-.29,1.28-1.29.6l-1-2,1-1.18Zm2.16-2.65s-.29,1.28-1.29.59l-.95-1.92,1-1.19Z"/><path class="cls-4" d="M1185.25,209.6a19.53,19.53,0,0,0-7,1.17s-5.41,2.56-7.88,4.09c-1.58,1-6.17,3.42-6.47,3.65,0,0-4.65,2.64-5.16,3.08,0,0-2.48,1.66-2.86,2,0,0-1.72,1.4-1.54,2.39,0,0-2.12-1.3,6.47-6.34,0,0,10.45-6.26,11.47-6.81,1.81-1,6.09-3.13,7.51-3.27A13.53,13.53,0,0,1,1185.25,209.6Z"/></g></g></svg>